<svg version="1.1" id="Layer_1" xmlns="http://www.w3.org/2000/svg" xmlns:xlink="http://www.w3.org/1999/xlink" x="0px" y="0px"
	 width="100%" viewBox="0 0 512 512" enable-background="new 0 0 512 512" xml:space="preserve">
<path fill="#000000" opacity="1.000000" stroke="none" 
	d="
M286.000000,513.000000 
	C192.022812,513.000000 98.545601,512.979492 5.068528,513.085144 
	C1.795423,513.088867 0.894715,512.634766 0.897218,509.070312 
	C1.015182,341.111359 1.016859,173.152328 0.891708,5.193420 
	C0.888907,1.434828 1.850453,0.913581 5.304635,0.915568 
	C173.096985,1.012110 340.889374,1.011540 508.681732,0.918693 
	C512.098999,0.916803 513.113953,1.383421 513.111023,5.179763 
	C512.982544,173.138687 512.985168,341.097717 513.101257,509.056671 
	C513.103699,512.593262 512.247681,513.092896 508.945099,513.087830 
	C434.796844,512.973389 360.648407,513.000000 286.000000,513.000000 
z"/>
<path fill="#888888" opacity="1.000000" stroke="none" 
	d="
M502.998932,342.000000 
	C502.999268,368.495117 502.823059,394.491730 503.042755,420.484985 
	C503.345978,456.356567 479.082947,488.659607 445.476837,499.186096 
	C437.928802,501.550385 430.243195,503.010620 422.294495,503.009613 
	C311.481964,502.995544 200.668976,503.159271 89.857285,502.852600 
	C69.991112,502.797638 52.643620,494.804352 37.883896,481.400177 
	C24.564857,469.304413 16.299589,454.286835 12.414966,436.869232 
	C11.570234,433.081726 10.950553,429.155731 10.952661,425.151459 
	C11.011429,313.505768 10.939261,201.860001 11.063951,90.214417 
	C11.083027,73.133057 17.189384,57.851143 27.312801,44.250877 
	C39.877625,27.370716 56.770126,16.995499 77.184494,12.342920 
	C81.001450,11.473010 85.005791,11.055926 88.924026,11.053587 
	C200.902969,10.986722 312.882202,10.883103 424.860687,11.126483 
	C441.487610,11.162621 456.477997,17.407753 469.829407,27.343399 
	C486.775391,39.954021 496.837830,57.021839 501.683716,77.305153 
	C502.667450,81.422768 502.943939,85.793900 502.947510,90.048660 
	C503.017639,173.865723 502.999268,257.682861 502.998932,342.000000 
z"/>
<path fill="#000000" opacity="1.000000" stroke="none" 
	d="
M362.000000,124.000000 
	C374.329102,124.000099 386.160797,123.846359 397.986511,124.046745 
	C408.299286,124.221489 416.747833,129.974854 419.440247,138.919281 
	C422.800018,150.080734 412.715912,163.970978 401.034393,163.978882 
	C334.724823,164.023773 268.415161,164.009949 202.105560,163.988052 
	C193.792099,163.985306 185.312210,156.088379 184.027618,147.328293 
	C182.588928,137.517365 187.765839,128.855591 196.503159,125.833427 
	C200.139694,124.575584 203.732239,123.968880 207.555023,123.972000 
	C258.869995,124.013802 310.184998,124.000000 362.000000,124.000000 
z"/>
<path fill="#000000" opacity="1.000000" stroke="none" 
	d="
M284.000000,349.998932 
	C322.981201,349.999115 361.462433,349.991364 399.943634,350.003632 
	C413.601562,350.007996 423.697144,364.641541 418.834381,377.339905 
	C416.352509,383.820953 406.831604,389.961426 398.573395,389.968445 
	C333.938354,390.023438 269.302032,390.200562 204.669144,389.821198 
	C192.423477,389.749329 186.902908,384.966187 184.174698,373.736755 
	C181.780548,363.882416 188.155243,353.919128 198.147232,350.465759 
	C199.651901,349.945709 201.402451,350.018982 203.039429,350.017456 
	C229.859604,349.992249 256.679810,349.999207 284.000000,349.998932 
z"/>
<path fill="#000000" opacity="1.000000" stroke="none" 
	d="
M392.964539,276.998901 
	C329.988007,276.998901 267.505676,276.989777 205.023361,277.009399 
	C196.361343,277.012115 189.777954,273.520294 185.940964,265.640289 
	C182.387527,258.342590 183.275238,251.280121 188.062851,244.817490 
	C192.178284,239.262207 197.960236,236.993423 204.771210,236.994766 
	C260.588745,237.005798 316.406311,237.001068 372.223846,237.001099 
	C381.387909,237.001114 390.564880,237.303635 399.712372,236.914505 
	C408.556244,236.538269 419.981476,247.228470 420.225800,256.614075 
	C420.489380,266.738708 408.539642,277.620697 399.955231,277.021210 
	C397.799713,276.870667 395.624725,276.998840 392.964539,276.998901 
z"/>
<path fill="#000000" opacity="1.000000" stroke="none" 
	d="
M125.174545,126.700523 
	C133.410721,131.289200 136.187469,142.630341 130.218613,152.596115 
	C123.118942,164.449936 107.282227,166.857986 98.433838,156.937988 
	C92.335136,150.100677 91.503357,138.830734 96.589272,131.945602 
	C103.051765,123.196945 112.802795,120.591904 122.273102,125.092255 
	C123.162819,125.515053 124.028481,125.988457 125.174545,126.700523 
z"/>
<path fill="#000000" opacity="1.000000" stroke="none" 
	d="
M100.259453,383.775208 
	C90.265404,375.931732 93.616226,365.176971 98.325111,357.420837 
	C102.497574,350.548248 112.216873,347.998749 120.789284,351.026398 
	C127.413239,353.365875 134.594696,363.897339 133.875687,370.825714 
	C132.857849,380.633667 126.382118,386.846985 117.396500,388.939056 
	C111.010773,390.425781 105.220116,388.850006 100.259453,383.775208 
z"/>
<path fill="#000000" opacity="1.000000" stroke="none" 
	d="
M130.020844,246.131409 
	C137.145737,260.270630 131.689148,272.722412 116.925011,276.571655 
	C109.070923,278.619354 98.639549,272.793762 95.633621,264.052643 
	C91.086388,250.829453 100.115700,236.677002 115.186478,237.097443 
	C121.408524,237.271011 126.175621,240.900604 130.020844,246.131409 
z"/>
</svg>