<svg version="1.1" id="Layer_1" xmlns="http://www.w3.org/2000/svg" xmlns:xlink="http://www.w3.org/1999/xlink" x="0px" y="0px"
	 width="100%" viewBox="0 0 512 512" enable-background="new 0 0 512 512" xml:space="preserve">
<path fill="#888888" opacity="1.000000" stroke="none" 
	d="
M185.357254,512.732300 
	C176.312439,513.000000 167.624863,513.000000 158.468658,513.000000 
	C153.185669,510.635193 147.742722,510.887604 142.715866,509.190002 
	C105.854973,496.742157 68.912590,484.536255 32.009087,472.214508 
	C20.988350,468.534790 11.606429,462.737335 5.273933,452.570801 
	C3.123223,449.117889 2.752002,445.256195 1.249211,441.302856 
	C1.000000,304.312439 1.000000,167.624878 1.000000,30.468658 
	C3.324834,27.196945 2.366417,23.304949 4.380686,20.303980 
	C10.559690,11.098167 17.830221,3.468521 29.702827,1.249428 
	C117.687561,1.000000 205.375122,1.000000 293.531342,1.000000 
	C294.399994,1.297940 294.778992,1.695120 295.275269,1.760430 
	C316.950378,4.612859 329.756927,18.700274 339.100769,36.821560 
	C343.583008,45.514343 345.449738,55.041447 345.470398,64.844917 
	C345.514954,86.004219 345.601379,107.164345 345.432739,128.322815 
	C345.341522,139.768005 338.510162,149.100632 328.347931,152.238754 
	C312.346893,157.179916 296.893646,145.967072 296.599426,128.840286 
	C296.276123,110.017700 295.936340,91.164459 296.666870,72.366913 
	C297.487518,51.252163 285.666809,46.072239 270.354309,46.373245 
	C247.371109,46.825039 224.372360,46.495243 201.380234,46.487400 
	C198.497177,46.486416 195.610611,46.558609 193.321503,46.136791 
	C203.871292,51.822857 211.484146,60.535805 215.214096,72.473007 
	C217.012634,78.228951 217.533737,84.174301 217.530457,90.232193 
	C217.476273,190.197968 217.488953,290.163788 217.492050,390.129608 
	C217.492447,402.841583 218.145584,403.506744 230.649155,403.506958 
	C245.144180,403.507202 259.639221,403.517944 274.134247,403.499908 
	C279.594391,403.493103 284.777710,402.494690 289.179352,399.043640 
	C294.939392,394.527557 296.542633,388.296967 296.531006,381.287140 
	C296.486725,354.629730 296.462006,327.972076 296.538330,301.314636 
	C296.561920,293.078735 299.213776,285.905640 305.784241,280.615234 
	C313.598145,274.323669 322.458282,273.878876 331.240265,277.616669 
	C340.565277,281.585541 344.998474,289.599762 345.352600,299.469116 
	C345.818451,312.451874 345.476624,325.456848 345.486633,338.452240 
	C345.498840,354.280151 345.579834,370.108612 345.464996,385.935852 
	C345.235992,417.492523 321.772217,445.317993 290.792572,450.954620 
	C288.143188,451.436646 285.493469,451.477448 282.830505,451.480774 
	C265.503113,451.502380 248.175705,451.485474 230.848297,451.491791 
	C218.151840,451.496429 217.376419,452.139893 217.532867,464.671417 
	C217.648834,473.959961 216.656006,482.888580 212.217636,491.291748 
	C206.424103,502.260681 198.309402,510.111847 185.357254,512.732300 
z"/>
<path fill="#000000" opacity="1.000000" stroke="none" 
	d="
M185.468658,513.000000 
	C183.783569,511.652863 185.222870,511.382507 185.907349,511.116638 
	C206.174438,503.243622 215.084579,487.950439 215.003403,466.744995 
	C214.986816,462.412354 215.306351,458.051758 214.914230,453.754822 
	C214.533356,449.581268 216.247849,448.892456 219.973373,448.921906 
	C240.635727,449.085236 261.302307,448.807220 281.963135,449.050415 
	C306.063843,449.334076 329.988739,430.859131 338.057129,409.358856 
	C341.507965,400.163269 343.107605,390.775513 343.052429,380.953094 
	C342.902588,354.291138 343.090607,327.627289 342.946930,300.965271 
	C342.902405,292.704498 340.199524,285.533844 332.552094,281.059448 
	C320.921387,274.254486 304.633331,278.188599 300.012115,293.432251 
	C299.087128,296.483459 298.984436,299.567932 298.987000,302.706787 
	C299.009460,330.036133 298.782196,357.368164 299.114014,384.693481 
	C299.235260,394.678772 290.518066,405.887970 277.816559,405.967651 
	C258.653412,406.087830 239.486618,405.837250 220.326859,406.118500 
	C215.832321,406.184448 214.895981,404.931702 214.901321,400.604584 
	C215.029465,296.786499 214.945007,192.968185 215.047821,89.150070 
	C215.068512,68.250084 204.437057,52.370754 185.692505,45.209549 
	C185.174042,45.011482 184.270081,45.297676 184.168365,44.001099 
	C197.314636,44.001099 210.426941,44.001133 223.539246,44.001091 
	C241.369980,44.001030 259.200714,43.991577 277.031464,44.004375 
	C287.415436,44.011829 295.688599,50.163891 298.506866,60.075569 
	C298.948486,61.628853 298.978119,63.335789 298.980377,64.971985 
	C299.009827,86.302170 298.764557,107.635971 299.086700,128.961334 
	C299.285614,142.129333 308.427429,150.887390 321.241638,150.895752 
	C333.244354,150.903610 342.747375,141.538345 342.910767,129.528564 
	C343.219086,106.869385 343.849335,84.162941 342.781952,61.549946 
	C341.482422,34.017746 322.984497,9.989390 295.481415,3.002546 
	C294.600128,2.778665 293.975647,2.409843 293.750671,1.345381 
	C365.592499,1.000000 437.185028,1.035857 508.777252,0.896515 
	C512.444275,0.889378 513.100464,1.728119 513.093628,5.268836 
	C512.966309,71.533272 513.000000,137.798004 513.000000,204.531342 
	C511.230682,206.783813 509.870392,206.052063 508.426178,204.437424 
	C488.449280,182.102875 466.321503,161.882507 445.437927,140.437393 
	C437.546722,132.333969 429.497070,124.381386 421.415009,116.466415 
	C416.549530,111.701523 410.762329,108.964386 403.811493,110.079918 
	C392.915253,111.828651 387.652374,118.506844 387.464813,130.795776 
	C384.622101,151.535416 385.829224,171.995438 385.299500,192.854492 
	C383.043365,196.304703 379.783142,195.413589 376.939850,195.427536 
	C352.822754,195.545914 328.705078,195.481049 304.587555,195.492874 
	C302.425568,195.493927 300.261078,195.444290 298.103577,195.617111 
	C288.320312,196.400772 281.192413,203.763763 280.717224,213.561829 
	C280.257996,223.030655 286.572357,231.090454 295.939301,232.981689 
	C298.731079,233.545364 301.563446,233.504791 304.390991,233.506027 
	C328.175842,233.516510 351.960785,233.478683 375.745514,233.542160 
	C378.694641,233.550034 381.758759,233.065109 384.803467,235.066223 
	C386.014923,246.188919 385.721436,256.982941 385.360657,267.727600 
	C385.029419,277.592590 387.671143,287.142090 387.455566,297.351990 
	C387.100830,306.110443 389.728973,313.093231 397.680420,316.661957 
	C405.790009,320.301666 413.578339,319.120148 420.469727,313.216797 
	C422.367828,311.590851 424.152954,309.853851 425.917969,308.092407 
	C450.635712,283.424988 475.276764,258.680786 500.026337,234.045288 
	C502.863403,231.221252 505.406281,228.160950 507.949646,225.087204 
	C509.111633,223.682907 510.265594,222.029877 512.734436,223.755676 
	C513.000000,318.932587 512.971191,413.865234 513.107239,508.797638 
	C513.112610,512.525208 512.190308,513.091003 508.708130,513.087585 
	C401.117950,512.980530 293.527618,513.000000 185.468658,513.000000 
z"/>
<path fill="#888888" opacity="1.000000" stroke="none" 
	d="
M384.778992,129.422607 
	C385.002472,120.147369 389.703461,111.950882 396.427765,109.296104 
	C406.778046,105.209785 415.082733,106.778717 422.175232,113.783089 
	C445.472229,136.790482 468.566071,160.004105 491.672546,183.203629 
	C498.884430,190.444519 506.652008,197.185059 512.761475,205.337952 
	C513.000000,211.021149 513.000000,217.042297 513.000000,223.531723 
	C512.724121,223.607986 512.406311,223.184799 511.962128,223.763031 
	C500.080139,239.231400 485.172302,251.799957 471.659271,265.700287 
	C456.010162,281.797913 439.994843,297.539398 424.147919,313.444885 
	C415.123840,322.502350 402.967957,324.018188 392.918152,316.910522 
	C387.538422,313.105804 384.776642,307.622681 384.999756,300.435669 
	C384.048859,298.293701 384.531647,296.428650 384.524323,294.639496 
	C384.445404,275.380676 384.580078,256.121460 384.213928,236.431549 
	C355.700378,236.000626 327.411591,235.864136 299.125336,236.073105 
	C288.880951,236.148804 279.567291,228.149414 278.106445,218.253067 
	C276.497681,207.354736 282.253143,196.672516 292.826965,193.540955 
	C294.671112,192.994781 296.409973,193.029297 298.189575,193.026901 
	C326.477325,192.988831 354.765137,193.000076 383.520874,193.000214 
	C384.961700,191.287888 384.467834,189.420929 384.475098,187.633530 
	C384.553650,168.374603 384.422668,149.115295 384.778992,129.422607 
z"/>
<path fill="#000000" opacity="1.000000" stroke="none" 
	d="
M1.000000,441.468658 
	C2.358127,439.794708 2.637918,441.231903 2.875385,441.923981 
	C7.964462,456.755707 18.767260,465.231567 33.258888,470.020935 
	C74.252068,483.568970 115.180099,497.314087 156.154007,510.920685 
	C157.142670,511.249023 158.022339,511.472168 158.299179,512.683838 
	C106.931259,513.000000 55.862457,512.972412 4.793900,513.069946 
	C1.799737,513.075684 0.881821,512.556030 0.907288,509.307373 
	C1.083325,486.851807 1.000000,464.394257 1.000000,441.468658 
z"/>
<path fill="#000000" opacity="1.000000" stroke="none" 
	d="
M29.531342,1.000000 
	C31.092016,2.991360 29.157207,2.924442 28.285070,3.271702 
	C16.297247,8.044903 7.965797,16.413910 3.216227,28.404318 
	C2.878047,29.258060 2.088809,29.933130 1.254652,30.345638 
	C1.000000,21.233850 1.119467,12.465014 0.922494,3.703293 
	C0.867983,1.278531 1.487733,0.891830 3.757859,0.935433 
	C12.190104,1.097391 20.627329,1.000000 29.531342,1.000000 
z"/>
<path fill="#FFFFFF" opacity="1.000000" stroke="none" 
	d="
M384.592010,129.160431 
	C384.907440,150.172943 384.815186,171.356934 384.355927,192.770660 
	C384.054016,171.777557 384.119171,150.554733 384.592010,129.160431 
z"/>
<path fill="#FFFFFF" opacity="1.000000" stroke="none" 
	d="
M383.993652,236.469116 
	C385.862274,237.364838 384.945068,239.354095 384.951599,241.022583 
	C385.027283,260.372345 385.000031,279.722534 384.999878,299.541962 
	C383.015167,298.914398 384.059021,297.053223 384.053131,295.598083 
	C383.973572,276.044861 383.999420,256.491241 383.993652,236.469116 
z"/>
</svg>