<svg version="1.1" id="Layer_1" xmlns="http://www.w3.org/2000/svg" xmlns:xlink="http://www.w3.org/1999/xlink" x="0px" y="0px"
	 width="100%" viewBox="0 0 512 512" enable-background="new 0 0 512 512" xml:space="preserve">
<path fill="#888888" opacity="1.000000" stroke="none" 
	d="
M0.999997,406.000000 
	C1.000000,285.645233 1.000000,165.290466 1.288468,44.803246 
	C3.694347,39.981979 5.517257,35.131599 7.984384,30.634653 
	C15.387658,17.140362 26.749363,8.330155 41.206680,3.307475 
	C42.275948,2.935996 43.075211,1.787346 44.000000,1.000000 
	C135.688095,1.000000 227.376205,1.000000 319.282837,1.345011 
	C320.163147,2.118248 320.772644,2.774717 321.494690,2.940258 
	C331.369415,5.204237 339.788147,10.354986 346.695129,17.398211 
	C358.150269,29.079334 364.122589,43.239704 364.052704,59.916229 
	C363.889221,98.913948 364.000854,137.912811 364.001068,176.911209 
	C364.001068,178.843750 364.001068,180.776276 364.001068,182.773926 
	C341.372681,183.880783 320.019684,188.001877 299.219269,196.392792 
	C299.115143,194.600998 298.985504,193.614929 299.011963,192.633057 
	C299.282867,182.572952 290.269684,172.097778 278.142883,172.069901 
	C214.312515,171.923141 150.481613,171.981598 86.650932,172.024841 
	C78.050629,172.030670 69.757500,178.028656 66.937508,185.910507 
	C61.975433,199.779465 72.338287,213.980148 87.527809,213.987686 
	C144.692108,214.016068 201.856430,213.999023 259.020752,213.998993 
	C260.762299,213.998993 262.503876,213.998993 264.245422,213.998993 
	C243.889328,229.837479 226.021149,247.460831 212.017761,269.549255 
	C210.734467,267.875549 209.740448,266.475861 208.641800,265.163788 
	C203.331924,258.822357 196.061966,257.072083 188.323090,257.044159 
	C158.324707,256.935822 128.325592,256.956970 98.327072,257.044220 
	C93.561920,257.058075 88.778053,257.480286 84.038223,258.022858 
	C71.983582,259.402649 65.230324,268.081604 66.032639,281.234314 
	C66.584824,290.286407 75.832405,299.229767 86.621613,299.125092 
	C121.116943,298.790405 155.617569,299.001038 190.116150,299.001099 
	C192.012039,299.001099 193.907913,299.001099 196.473343,299.001099 
	C176.783539,350.023926 178.767914,399.696472 200.693985,449.000000 
	C198.242294,449.000000 196.414627,449.000000 194.586945,449.000000 
	C148.255508,448.999939 101.923988,448.951141 55.592731,449.041504 
	C46.456818,449.059296 38.256474,446.076141 30.461477,441.875366 
	C16.958115,434.598328 8.358234,423.149628 3.319257,408.817108 
	C2.940392,407.739471 1.791133,406.932709 0.999997,406.000000 
M160.496918,86.998863 
	C135.366043,86.999359 110.232826,86.793121 85.105194,87.078819 
	C70.316238,87.246979 62.012615,102.863693 67.431396,115.883347 
	C71.626122,125.961990 80.441544,128.852753 90.288681,128.930801 
	C116.083649,129.135254 141.881546,129.051590 167.677643,128.937256 
	C171.081970,128.922180 174.653320,128.568405 177.853455,127.495255 
	C188.222824,124.017914 194.057541,113.846176 191.914871,103.302902 
	C190.060974,94.180481 180.763016,85.971893 170.976379,86.950096 
	C167.845490,87.263039 164.656952,86.998940 160.496918,86.998863 
z"/>
<path fill="#000000" opacity="1.000000" stroke="none" 
	d="
M0.999997,406.468658 
	C1.791133,406.932709 2.940392,407.739471 3.319257,408.817108 
	C8.358234,423.149628 16.958115,434.598328 30.461477,441.875366 
	C38.256474,446.076141 46.456818,449.059296 55.592731,449.041504 
	C101.923988,448.951141 148.255508,448.999939 194.586945,449.000000 
	C196.414627,449.000000 198.242294,449.000000 200.693985,449.000000 
	C178.767914,399.696472 176.783539,350.023926 196.473343,299.001099 
	C193.907913,299.001099 192.012039,299.001099 190.116150,299.001099 
	C155.617569,299.001038 121.116943,298.790405 86.621613,299.125092 
	C75.832405,299.229767 66.584824,290.286407 66.032639,281.234314 
	C65.230324,268.081604 71.983582,259.402649 84.038223,258.022858 
	C88.778053,257.480286 93.561920,257.058075 98.327072,257.044220 
	C128.325592,256.956970 158.324707,256.935822 188.323090,257.044159 
	C196.061966,257.072083 203.331924,258.822357 208.641800,265.163788 
	C209.740448,266.475861 210.734467,267.875549 212.017761,269.549255 
	C226.021149,247.460831 243.889328,229.837479 264.245422,213.998993 
	C262.503876,213.998993 260.762299,213.998993 259.020752,213.998993 
	C201.856430,213.999023 144.692108,214.016068 87.527809,213.987686 
	C72.338287,213.980148 61.975433,199.779465 66.937508,185.910507 
	C69.757500,178.028656 78.050629,172.030670 86.650932,172.024841 
	C150.481613,171.981598 214.312515,171.923141 278.142883,172.069901 
	C290.269684,172.097778 299.282867,182.572952 299.011963,192.633057 
	C298.985504,193.614929 299.115143,194.600998 299.219269,196.392792 
	C320.019684,188.001877 341.372681,183.880783 364.001068,182.773926 
	C364.001068,180.776276 364.001068,178.843750 364.001068,176.911209 
	C364.000854,137.912811 363.889221,98.913948 364.052704,59.916229 
	C364.122589,43.239704 358.150269,29.079334 346.695129,17.398211 
	C339.788147,10.354986 331.369415,5.204237 321.494690,2.940258 
	C320.772644,2.774717 320.163147,2.118248 319.750671,1.345011 
	C384.280914,1.000000 448.561798,1.000000 513.000000,1.000000 
	C513.000000,115.354179 513.000000,229.708435 512.618896,344.742554 
	C511.851593,344.916168 511.188324,344.444611 511.120026,343.898590 
	C509.564880,331.460907 505.415588,319.826721 500.171631,308.544739 
	C491.102417,289.032776 478.484528,272.298035 461.975342,258.340210 
	C447.487793,246.091660 431.150360,237.193939 413.381775,231.268661 
	C392.814667,224.410187 371.492554,223.588272 349.948578,225.902832 
	C335.800934,227.422760 322.406067,231.412872 309.601135,237.230759 
	C287.039154,247.481735 267.984924,262.349945 253.175415,282.367249 
	C243.474030,295.480164 236.097855,309.836975 231.064468,325.355774 
	C225.665436,342.001862 224.502808,359.136719 224.912262,376.535553 
	C225.232117,390.127411 227.693710,403.322998 232.209991,415.960144 
	C241.097153,440.827637 255.151459,462.294434 275.734528,479.343903 
	C295.563202,495.768494 317.835663,506.628601 343.222351,511.086639 
	C343.905823,511.206635 344.411438,512.339478 345.000000,513.000000 
	C230.444626,513.000000 115.889259,513.000000 1.000000,513.000000 
	C1.000000,477.646484 1.000000,442.291901 0.999997,406.468658 
z"/>
<path fill="#888888" opacity="1.000000" stroke="none" 
	d="
M345.468658,513.000000 
	C344.411438,512.339478 343.905823,511.206635 343.222351,511.086639 
	C317.835663,506.628601 295.563202,495.768494 275.734528,479.343903 
	C255.151459,462.294434 241.097153,440.827637 232.209991,415.960144 
	C227.693710,403.322998 225.232117,390.127411 224.912262,376.535553 
	C224.502808,359.136719 225.665436,342.001862 231.064468,325.355774 
	C236.097855,309.836975 243.474030,295.480164 253.175415,282.367249 
	C267.984924,262.349945 287.039154,247.481735 309.601135,237.230759 
	C322.406067,231.412872 335.800934,227.422760 349.948578,225.902832 
	C371.492554,223.588272 392.814667,224.410187 413.381775,231.268661 
	C431.150360,237.193939 447.487793,246.091660 461.975342,258.340210 
	C478.484528,272.298035 491.102417,289.032776 500.171631,308.544739 
	C505.415588,319.826721 509.564880,331.460907 511.120026,343.898590 
	C511.188324,344.444611 511.851593,344.916168 512.618896,345.211212 
	C513.000000,360.687561 513.000000,376.375122 512.615234,392.337585 
	C511.829865,393.282867 511.265381,393.905334 511.053253,394.630829 
	C508.005005,405.057312 505.995850,415.918091 501.786469,425.847626 
	C492.919281,446.764557 479.909760,464.871704 462.136749,479.473083 
	C442.303772,495.766754 420.160034,506.776825 394.770844,511.087341 
	C394.091888,511.202637 393.586395,512.339539 393.000000,513.000000 
	C377.312439,513.000000 361.624878,513.000000 345.468658,513.000000 
M331.497589,348.001068 
	C324.669434,348.001129 317.838928,348.115021 311.013611,347.975922 
	C299.211578,347.735382 289.751709,359.530090 289.640930,368.778320 
	C289.504730,380.154358 300.388977,390.171448 311.070404,390.029999 
	C321.727051,389.888855 332.387024,389.999084 343.045532,389.999054 
	C344.624969,389.999054 346.204407,389.999023 348.001068,389.999023 
	C348.001068,397.606110 347.871277,404.427643 348.036499,411.242035 
	C348.212402,418.495850 347.641327,425.975586 349.220978,432.943024 
	C352.225800,446.196411 367.145813,452.443909 379.221283,445.370636 
	C386.707611,440.985504 390.068848,434.289185 390.016876,425.680634 
	C389.945862,413.917450 389.999146,402.153503 389.999146,389.999054 
	C402.733002,389.999054 414.858582,389.878143 426.980591,390.034607 
	C438.084900,390.177917 449.313751,379.431824 448.199982,367.694366 
	C447.208160,357.242767 438.332855,348.081177 426.910767,348.014465 
	C416.252625,347.952209 405.593811,348.001007 394.935303,348.000946 
	C393.357788,348.000946 391.780243,348.000946 389.998932,348.000946 
	C389.998932,339.545258 390.126770,331.889771 389.959595,324.240723 
	C389.819153,317.814911 390.186462,311.209473 388.824524,305.014252 
	C386.054108,292.412354 370.430756,285.176453 358.343719,292.899384 
	C351.386322,297.344757 347.997375,303.629456 347.999817,311.826447 
	C348.003387,323.755981 348.000763,335.685516 348.000763,348.001068 
	C342.425079,348.001068 337.460388,348.001068 331.497589,348.001068 
z"/>
<path fill="#000000" opacity="1.000000" stroke="none" 
	d="
M393.468658,513.000000 
	C393.586395,512.339539 394.091888,511.202637 394.770844,511.087341 
	C420.160034,506.776825 442.303772,495.766754 462.136749,479.473083 
	C479.909760,464.871704 492.919281,446.764557 501.786469,425.847626 
	C505.995850,415.918091 508.005005,405.057312 511.053253,394.630829 
	C511.265381,393.905334 511.829865,393.282867 512.615234,392.806244 
	C513.000000,432.926971 513.000000,472.853912 513.000000,513.000000 
	C473.312714,513.000000 433.625000,513.000000 393.468658,513.000000 
z"/>
<path fill="#000000" opacity="1.000000" stroke="none" 
	d="
M43.531342,1.000000 
	C43.075211,1.787346 42.275948,2.935996 41.206680,3.307475 
	C26.749363,8.330155 15.387658,17.140362 7.984384,30.634653 
	C5.517257,35.131599 3.694347,39.981979 1.288468,44.335396 
	C1.000000,29.739979 1.000000,15.479958 1.000000,1.000000 
	C15.020128,1.000000 29.041407,1.000000 43.531342,1.000000 
z"/>
<path fill="#000000" opacity="1.000000" stroke="none" 
	d="
M160.995850,86.998863 
	C164.656952,86.998940 167.845490,87.263039 170.976379,86.950096 
	C180.763016,85.971893 190.060974,94.180481 191.914871,103.302902 
	C194.057541,113.846176 188.222824,124.017914 177.853455,127.495255 
	C174.653320,128.568405 171.081970,128.922180 167.677643,128.937256 
	C141.881546,129.051590 116.083649,129.135254 90.288681,128.930801 
	C80.441544,128.852753 71.626122,125.961990 67.431396,115.883347 
	C62.012615,102.863693 70.316238,87.246979 85.105194,87.078819 
	C110.232826,86.793121 135.366043,86.999359 160.995850,86.998863 
z"/>
<path fill="#000000" opacity="1.000000" stroke="none" 
	d="
M331.996643,348.001068 
	C337.460388,348.001068 342.425079,348.001068 348.000763,348.001068 
	C348.000763,335.685516 348.003387,323.755981 347.999817,311.826447 
	C347.997375,303.629456 351.386322,297.344757 358.343719,292.899384 
	C370.430756,285.176453 386.054108,292.412354 388.824524,305.014252 
	C390.186462,311.209473 389.819153,317.814911 389.959595,324.240723 
	C390.126770,331.889771 389.998932,339.545258 389.998932,348.000946 
	C391.780243,348.000946 393.357788,348.000946 394.935303,348.000946 
	C405.593811,348.001007 416.252625,347.952209 426.910767,348.014465 
	C438.332855,348.081177 447.208160,357.242767 448.199982,367.694366 
	C449.313751,379.431824 438.084900,390.177917 426.980591,390.034607 
	C414.858582,389.878143 402.733002,389.999054 389.999146,389.999054 
	C389.999146,402.153503 389.945862,413.917450 390.016876,425.680634 
	C390.068848,434.289185 386.707611,440.985504 379.221283,445.370636 
	C367.145813,452.443909 352.225800,446.196411 349.220978,432.943024 
	C347.641327,425.975586 348.212402,418.495850 348.036499,411.242035 
	C347.871277,404.427643 348.001068,397.606110 348.001068,389.999023 
	C346.204407,389.999023 344.624969,389.999054 343.045532,389.999054 
	C332.387024,389.999084 321.727051,389.888855 311.070404,390.029999 
	C300.388977,390.171448 289.504730,380.154358 289.640930,368.778320 
	C289.751709,359.530090 299.211578,347.735382 311.013611,347.975922 
	C317.838928,348.115021 324.669434,348.001129 331.996643,348.001068 
z"/>
</svg>