<?xml version="1.0" standalone="no"?>
<!DOCTYPE svg PUBLIC "-//W3C//DTD SVG 20010904//EN"
 "http://www.w3.org/TR/2001/REC-SVG-20010904/DTD/svg10.dtd">
<svg version="1.0" xmlns="http://www.w3.org/2000/svg"
 width="512.000000pt" height="512.000000pt" viewBox="0 0 512.000000 512.000000"
 preserveAspectRatio="xMidYMid meet">

<g transform="translate(0.000000,512.000000) scale(0.100000,-0.100000)"
fill="#000000" stroke="none">
<path d="M1 3828 c0 -1013 3 -1286 12 -1261 16 43 2304 1952 2387 1992 49 23
67 26 160 26 93 0 111 -3 160 -26 35 -17 195 -144 450 -358 217 -182 398 -331
403 -331 4 0 7 147 7 326 l0 326 29 29 29 29 347 0 346 0 24 -25 25 -24 0
-669 0 -670 358 -296 c265 -221 360 -305 369 -329 9 -25 12 247 12 1261 l1
1292 -2560 0 -2560 0 1 -1292z"/>
<path d="M1460 3143 c-602 -503 -1110 -921 -1128 -929 -36 -16 -66 -11 -96 15
-42 36 -219 254 -226 279 -5 15 -9 -543 -9 -1240 l-1 -1268 2560 0 2560 0 -1
1268 c0 697 -4 1255 -9 1240 -4 -15 -43 -69 -86 -120 -147 -176 -169 -195
-222 -181 -14 3 -524 422 -1134 930 -609 507 -1109 923 -1110 922 -2 0 -496
-412 -1098 -916z m2015 -129 l905 -745 0 -800 c0 -670 -2 -804 -14 -827 -19
-37 -75 -89 -109 -101 -19 -7 -238 -11 -658 -11 l-629 0 0 610 0 610 -410 0
-410 0 0 -610 0 -610 -629 0 c-420 0 -639 4 -658 11 -34 12 -90 64 -109 101
-12 23 -14 157 -14 827 l0 799 903 745 c496 410 908 746 915 746 7 1 420 -335
917 -745z"/>
</g>
</svg>
