<svg version="1.1" id="Layer_1" xmlns="http://www.w3.org/2000/svg" xmlns:xlink="http://www.w3.org/1999/xlink" x="0px" y="0px"
	 width="100%" viewBox="0 0 512 512" enable-background="new 0 0 512 512" xml:space="preserve">
<path fill="#888888" opacity="1.000000" stroke="none" 
	d="
M356.000000,513.000000 
	C347.312439,513.000000 338.624878,513.000000 329.806763,512.720337 
	C324.099915,509.151825 317.783569,506.673431 313.105469,502.401154 
	C304.084839,494.163147 299.327759,483.402435 299.032440,471.003601 
	C298.859711,463.752289 299.000977,456.493469 299.000977,449.000000 
	C277.431274,449.000000 256.611359,448.695709 235.806030,449.114502 
	C223.398819,449.364288 212.121719,446.431152 201.740433,439.916962 
	C182.899185,428.094238 172.692993,410.660126 171.209488,388.795593 
	C170.140350,373.038391 170.410965,357.122040 171.164261,341.328247 
	C171.946381,324.929993 187.380447,316.585938 202.158768,322.727448 
	C211.177933,326.475616 214.905930,334.087708 214.974579,343.550751 
	C215.072495,357.046997 215.383774,370.558655 214.885574,384.037201 
	C214.435715,396.208191 224.750275,406.046478 237.011459,406.012756 
	C255.840393,405.960999 274.669586,405.998993 293.498657,405.998871 
	C295.250488,405.998871 297.002289,405.998840 299.001068,405.998840 
	C299.001068,403.087646 299.001068,400.935547 299.001068,398.783478 
	C299.000824,294.807007 298.979309,190.830490 299.028748,86.854042 
	C299.034546,74.668243 302.979309,63.764629 312.156494,55.570602 
	C317.311615,50.967754 323.546082,47.573708 328.758575,44.002102 
	C298.178253,44.002102 266.686920,43.747826 235.203659,44.141396 
	C224.331421,44.277313 214.985367,53.291157 214.939911,64.763023 
	C214.903885,73.850693 215.026367,83.030098 213.813049,91.997551 
	C212.479477,101.853752 202.159119,108.142113 193.234955,108.219208 
	C183.485443,108.303436 173.521454,101.690865 172.190781,91.996361 
	C170.960464,83.032990 171.148636,73.851601 171.050323,64.762558 
	C170.946243,55.138065 173.191071,45.886574 177.394211,37.287067 
	C185.458282,20.788183 198.051163,9.256037 215.745514,3.572754 
	C216.978592,3.176701 217.921921,1.878616 219.000000,1.000001 
	C306.687561,1.000000 394.375122,1.000000 482.261597,1.320653 
	C482.792725,2.006802 483.057007,2.565665 483.467072,2.709785 
	C497.007019,7.468537 506.652130,16.128227 511.149292,30.056646 
	C511.299438,30.521799 512.362488,30.692207 513.000000,31.000004 
	C513.000000,167.354233 513.000000,303.708466 512.708984,440.209595 
	C511.951965,440.997864 511.314392,441.574738 511.045471,442.290161 
	C506.553528,454.239594 498.742767,463.136047 486.677185,467.622955 
	C475.653564,471.722382 464.429932,475.288391 453.268677,479.012146 
	C421.970764,489.454285 390.653748,499.839294 359.374084,510.335541 
	C358.095337,510.764648 357.117859,512.091431 356.000000,513.000000 
z"/>
<path fill="#000000" opacity="1.000000" stroke="none" 
	d="
M218.531342,1.000001 
	C217.921921,1.878616 216.978592,3.176701 215.745514,3.572754 
	C198.051163,9.256037 185.458282,20.788183 177.394211,37.287067 
	C173.191071,45.886574 170.946243,55.138065 171.050323,64.762558 
	C171.148636,73.851601 170.960464,83.032990 172.190781,91.996361 
	C173.521454,101.690865 183.485443,108.303436 193.234955,108.219208 
	C202.159119,108.142113 212.479477,101.853752 213.813049,91.997551 
	C215.026367,83.030098 214.903885,73.850693 214.939911,64.763023 
	C214.985367,53.291157 224.331421,44.277313 235.203659,44.141396 
	C266.686920,43.747826 298.178253,44.002102 328.758575,44.002102 
	C323.546082,47.573708 317.311615,50.967754 312.156494,55.570602 
	C302.979309,63.764629 299.034546,74.668243 299.028748,86.854042 
	C298.979309,190.830490 299.000824,294.807007 299.001068,398.783478 
	C299.001068,400.935547 299.001068,403.087646 299.001068,405.998840 
	C297.002289,405.998840 295.250488,405.998871 293.498657,405.998871 
	C274.669586,405.998993 255.840393,405.960999 237.011459,406.012756 
	C224.750275,406.046478 214.435715,396.208191 214.885574,384.037201 
	C215.383774,370.558655 215.072495,357.046997 214.974579,343.550751 
	C214.905930,334.087708 211.177933,326.475616 202.158768,322.727448 
	C187.380447,316.585938 171.946381,324.929993 171.164261,341.328247 
	C170.410965,357.122040 170.140350,373.038391 171.209488,388.795593 
	C172.692993,410.660126 182.899185,428.094238 201.740433,439.916962 
	C212.121719,446.431152 223.398819,449.364288 235.806030,449.114502 
	C256.611359,448.695709 277.431274,449.000000 299.000977,449.000000 
	C299.000977,456.493469 298.859711,463.752289 299.032440,471.003601 
	C299.327759,483.402435 304.084839,494.163147 313.105469,502.401154 
	C317.783569,506.673431 324.099915,509.151825 329.338074,512.720337 
	C219.744217,513.000000 110.488419,513.000000 1.000000,513.000000 
	C1.000000,416.979218 1.000000,320.958282 1.257330,224.145599 
	C7.723418,233.241150 16.640841,236.475281 28.208338,236.185867 
	C52.520069,235.577606 76.857620,236.001144 101.184570,236.001160 
	C102.966736,236.001160 104.748901,236.001175 107.001068,236.001175 
	C107.001068,238.322754 107.001076,240.112549 107.001060,241.902328 
	C107.000908,261.063965 106.987663,280.225616 107.006485,299.387268 
	C107.015053,308.113922 112.447952,316.434448 120.134918,319.609711 
	C128.285706,322.976562 138.365921,321.115692 144.427414,315.057770 
	C172.948242,286.553741 201.468201,258.048828 229.936020,229.491943 
	C231.533768,227.889191 232.972092,225.969849 233.958145,223.941879 
	C238.600418,214.394424 236.006668,204.360931 226.706497,195.065201 
	C203.375397,171.745239 180.071945,148.397507 156.689774,125.128876 
	C152.256195,120.716820 147.569061,116.552719 142.895935,112.389801 
	C135.892136,106.150635 127.875092,105.367592 119.655052,109.224052 
	C110.755623,113.399239 106.961845,120.979797 106.986694,130.685043 
	C107.034912,149.513321 107.000977,168.341797 107.001076,187.170197 
	C107.001083,188.953644 107.001068,190.737091 107.001068,192.999954 
	C104.690010,192.999954 102.901451,192.999969 101.112892,192.999969 
	C74.619843,192.999985 48.125984,193.116638 21.634212,192.932571 
	C13.117582,192.873413 7.237000,196.548401 3.068274,203.665878 
	C2.698238,204.297653 1.704217,204.563950 1.000000,205.000000 
	C1.000000,137.070541 1.000000,69.141083 1.000000,1.000000 
	C73.354088,1.000000 145.708389,1.000000 218.531342,1.000001 
z"/>
<path fill="#888888" opacity="1.000000" stroke="none" 
	d="
M1.000000,205.468277 
	C1.704217,204.563950 2.698238,204.297653 3.068274,203.665878 
	C7.237000,196.548401 13.117582,192.873413 21.634212,192.932571 
	C48.125984,193.116638 74.619843,192.999985 101.112892,192.999969 
	C102.901451,192.999969 104.690010,192.999954 107.001068,192.999954 
	C107.001068,190.737091 107.001083,188.953644 107.001076,187.170197 
	C107.000977,168.341797 107.034912,149.513321 106.986694,130.685043 
	C106.961845,120.979797 110.755623,113.399239 119.655052,109.224052 
	C127.875092,105.367592 135.892136,106.150635 142.895935,112.389801 
	C147.569061,116.552719 152.256195,120.716820 156.689774,125.128876 
	C180.071945,148.397507 203.375397,171.745239 226.706497,195.065201 
	C236.006668,204.360931 238.600418,214.394424 233.958145,223.941879 
	C232.972092,225.969849 231.533768,227.889191 229.936020,229.491943 
	C201.468201,258.048828 172.948242,286.553741 144.427414,315.057770 
	C138.365921,321.115692 128.285706,322.976562 120.134918,319.609711 
	C112.447952,316.434448 107.015053,308.113922 107.006485,299.387268 
	C106.987663,280.225616 107.000908,261.063965 107.001060,241.902328 
	C107.001076,240.112549 107.001068,238.322754 107.001068,236.001175 
	C104.748901,236.001175 102.966736,236.001160 101.184570,236.001160 
	C76.857620,236.001144 52.520069,235.577606 28.208338,236.185867 
	C16.640841,236.475281 7.723418,233.241150 1.257330,223.676941 
	C1.000000,217.978851 1.000000,211.957703 1.000000,205.468277 
z"/>
<path fill="#000000" opacity="1.000000" stroke="none" 
	d="
M356.468658,513.000000 
	C357.117859,512.091431 358.095337,510.764648 359.374084,510.335541 
	C390.653748,499.839294 421.970764,489.454285 453.268677,479.012146 
	C464.429932,475.288391 475.653564,471.722382 486.677185,467.622955 
	C498.742767,463.136047 506.553528,454.239594 511.045471,442.290161 
	C511.314392,441.574738 511.951965,440.997864 512.708984,440.678284 
	C513.000000,464.954071 513.000000,488.908112 513.000000,513.000000 
	C460.979187,513.000000 408.958252,513.000000 356.468658,513.000000 
z"/>
<path fill="#000000" opacity="1.000000" stroke="none" 
	d="
M513.000000,30.531345 
	C512.362488,30.692207 511.299438,30.521799 511.149292,30.056646 
	C506.652130,16.128227 497.007019,7.468537 483.467072,2.709785 
	C483.057007,2.565665 482.792725,2.006802 482.730225,1.320653 
	C492.926483,1.000000 502.852997,1.000000 513.000000,1.000000 
	C513.000000,10.686448 513.000000,20.374567 513.000000,30.531345 
z"/>
</svg>